<?xml version="1.0" encoding="UTF-8" standalone="no"?>
<!DOCTYPE svg PUBLIC "-//W3C//DTD SVG 1.1//EN"
 "http://www.w3.org/Graphics/SVG/1.1/DTD/svg11.dtd">
<!-- Generated by graphviz version 8.0.5 (20230430.1635)
 -->
<!-- Pages: 1 -->
<svg width="1269pt" height="332pt"
 viewBox="0.00 0.00 1268.88 332.00" xmlns="http://www.w3.org/2000/svg" xmlns:xlink="http://www.w3.org/1999/xlink">
<g id="graph0" class="graph" transform="scale(1 1) rotate(0) translate(4 328)">
<polygon fill="white" stroke="none" points="-4,4 -4,-328 1264.88,-328 1264.88,4 -4,4"/>
<!-- [root] azurerm_resource_group.dr_resource_groups_subscription_a (expand) -->
<g id="node1" class="node">
<title>[root] azurerm_resource_group.dr_resource_groups_subscription_a (expand)</title>
<polygon fill="none" stroke="black" points="1094.62,-180 746.38,-180 746.38,-144 1094.62,-144 1094.62,-180"/>
<text text-anchor="middle" x="920.5" y="-156.95" font-family="Times,serif" font-size="14.00">azurerm_resource_group.dr_resource_groups_subscription_a</text>
</g>
<!-- [root] provider[&quot;registry.terraform.io/hashicorp/azurerm&quot;] -->
<g id="node3" class="node">
<title>[root] provider[&quot;registry.terraform.io/hashicorp/azurerm&quot;]</title>
<polygon fill="none" stroke="black" points="426.5,-108 138.91,-90 426.5,-72 714.09,-90 426.5,-108"/>
<text text-anchor="middle" x="426.5" y="-84.95" font-family="Times,serif" font-size="14.00">provider[&quot;registry.terraform.io/hashicorp/azurerm&quot;]</text>
</g>
<!-- [root] azurerm_resource_group.dr_resource_groups_subscription_a (expand)&#45;&gt;[root] provider[&quot;registry.terraform.io/hashicorp/azurerm&quot;] -->
<g id="edge1" class="edge">
<title>[root] azurerm_resource_group.dr_resource_groups_subscription_a (expand)&#45;&gt;[root] provider[&quot;registry.terraform.io/hashicorp/azurerm&quot;]</title>
<path fill="none" stroke="black" d="M797.12,-143.52C712.23,-131.49 601.1,-115.74 522.75,-104.64"/>
<polygon fill="black" stroke="black" points="523.31,-101.04 512.92,-103.1 522.33,-107.97 523.31,-101.04"/>
</g>
<!-- [root] var.dr_region -->
<g id="node4" class="node">
<title>[root] var.dr_region</title>
<polygon fill="none" stroke="black" points="1254.88,-108 1172.12,-108 1172.12,-72 1260.88,-72 1260.88,-102 1254.88,-108"/>
<polyline fill="none" stroke="black" points="1254.88,-108 1254.88,-102"/>
<polyline fill="none" stroke="black" points="1260.88,-102 1254.88,-102"/>
<text text-anchor="middle" x="1216.5" y="-84.95" font-family="Times,serif" font-size="14.00">var.dr_region</text>
</g>
<!-- [root] azurerm_resource_group.dr_resource_groups_subscription_a (expand)&#45;&gt;[root] var.dr_region -->
<g id="edge2" class="edge">
<title>[root] azurerm_resource_group.dr_resource_groups_subscription_a (expand)&#45;&gt;[root] var.dr_region</title>
<path fill="none" stroke="black" d="M1010.43,-143.52C1053.68,-134.61 1106.42,-123.01 1161.16,-108.52"/>
<polygon fill="black" stroke="black" points="1162.01,-111.65 1170.77,-105.68 1160.2,-104.88 1162.01,-111.65"/>
</g>
<!-- [root] var.resource_group_count -->
<g id="node6" class="node">
<title>[root] var.resource_group_count</title>
<polygon fill="none" stroke="black" points="883,-108 732,-108 732,-72 889,-72 889,-102 883,-108"/>
<polyline fill="none" stroke="black" points="883,-108 883,-102"/>
<polyline fill="none" stroke="black" points="889,-102 883,-102"/>
<text text-anchor="middle" x="810.5" y="-84.95" font-family="Times,serif" font-size="14.00">var.resource_group_count</text>
</g>
<!-- [root] azurerm_resource_group.dr_resource_groups_subscription_a (expand)&#45;&gt;[root] var.resource_group_count -->
<g id="edge3" class="edge">
<title>[root] azurerm_resource_group.dr_resource_groups_subscription_a (expand)&#45;&gt;[root] var.resource_group_count</title>
<path fill="none" stroke="black" d="M893.03,-143.52C879.01,-134.6 861.78,-123.63 846.69,-114.03"/>
<polygon fill="black" stroke="black" points="848.94,-110.68 838.62,-108.26 845.18,-116.58 848.94,-110.68"/>
</g>
<!-- [root] var.resource_group_names_subscription_a -->
<g id="node7" class="node">
<title>[root] var.resource_group_names_subscription_a</title>
<polygon fill="none" stroke="black" points="1148.38,-108 906.62,-108 906.62,-72 1154.38,-72 1154.38,-102 1148.38,-108"/>
<polyline fill="none" stroke="black" points="1148.38,-108 1148.38,-102"/>
<polyline fill="none" stroke="black" points="1154.38,-102 1148.38,-102"/>
<text text-anchor="middle" x="1030.5" y="-84.95" font-family="Times,serif" font-size="14.00">var.resource_group_names_subscription_a</text>
</g>
<!-- [root] azurerm_resource_group.dr_resource_groups_subscription_a (expand)&#45;&gt;[root] var.resource_group_names_subscription_a -->
<g id="edge4" class="edge">
<title>[root] azurerm_resource_group.dr_resource_groups_subscription_a (expand)&#45;&gt;[root] var.resource_group_names_subscription_a</title>
<path fill="none" stroke="black" d="M947.97,-143.52C961.99,-134.6 979.22,-123.63 994.31,-114.03"/>
<polygon fill="black" stroke="black" points="995.82,-116.58 1002.38,-108.26 992.06,-110.68 995.82,-116.58"/>
</g>
<!-- [root] azurerm_resource_group.primary_resource_groups_subscription_a (expand) -->
<g id="node2" class="node">
<title>[root] azurerm_resource_group.primary_resource_groups_subscription_a (expand)</title>
<polygon fill="none" stroke="black" points="728.75,-180 348.25,-180 348.25,-144 728.75,-144 728.75,-180"/>
<text text-anchor="middle" x="538.5" y="-156.95" font-family="Times,serif" font-size="14.00">azurerm_resource_group.primary_resource_groups_subscription_a</text>
</g>
<!-- [root] azurerm_resource_group.primary_resource_groups_subscription_a (expand)&#45;&gt;[root] provider[&quot;registry.terraform.io/hashicorp/azurerm&quot;] -->
<g id="edge5" class="edge">
<title>[root] azurerm_resource_group.primary_resource_groups_subscription_a (expand)&#45;&gt;[root] provider[&quot;registry.terraform.io/hashicorp/azurerm&quot;]</title>
<path fill="none" stroke="black" d="M510.53,-143.52C495.47,-134.11 476.77,-122.42 460.84,-112.46"/>
<polygon fill="black" stroke="black" points="463.16,-109.16 452.82,-106.83 459.45,-115.1 463.16,-109.16"/>
</g>
<!-- [root] var.primary_region -->
<g id="node5" class="node">
<title>[root] var.primary_region</title>
<polygon fill="none" stroke="black" points="115,-108 0,-108 0,-72 121,-72 121,-102 115,-108"/>
<polyline fill="none" stroke="black" points="115,-108 115,-102"/>
<polyline fill="none" stroke="black" points="121,-102 115,-102"/>
<text text-anchor="middle" x="60.5" y="-84.95" font-family="Times,serif" font-size="14.00">var.primary_region</text>
</g>
<!-- [root] azurerm_resource_group.primary_resource_groups_subscription_a (expand)&#45;&gt;[root] var.primary_region -->
<g id="edge6" class="edge">
<title>[root] azurerm_resource_group.primary_resource_groups_subscription_a (expand)&#45;&gt;[root] var.primary_region</title>
<path fill="none" stroke="black" d="M370.18,-143.52C299.11,-135.07 215.33,-123.71 132.05,-108.38"/>
<polygon fill="black" stroke="black" points="132.84,-104.78 122.37,-106.39 131.56,-111.66 132.84,-104.78"/>
</g>
<!-- [root] azurerm_resource_group.primary_resource_groups_subscription_a (expand)&#45;&gt;[root] var.resource_group_count -->
<g id="edge7" class="edge">
<title>[root] azurerm_resource_group.primary_resource_groups_subscription_a (expand)&#45;&gt;[root] var.resource_group_count</title>
<path fill="none" stroke="black" d="M606.44,-143.52C644.71,-133.67 692.68,-121.32 732.49,-111.07"/>
<polygon fill="black" stroke="black" points="733.15,-114.26 741.96,-108.38 731.4,-107.48 733.15,-114.26"/>
</g>
<!-- [root] azurerm_resource_group.primary_resource_groups_subscription_a (expand)&#45;&gt;[root] var.resource_group_names_subscription_a -->
<g id="edge8" class="edge">
<title>[root] azurerm_resource_group.primary_resource_groups_subscription_a (expand)&#45;&gt;[root] var.resource_group_names_subscription_a</title>
<path fill="none" stroke="black" d="M661.38,-143.52C733.14,-133.31 823.72,-120.42 897.19,-109.97"/>
<polygon fill="black" stroke="black" points="897.5,-113.32 906.91,-108.44 896.51,-106.39 897.5,-113.32"/>
</g>
<!-- [root] var.subscription_a_id -->
<g id="node8" class="node">
<title>[root] var.subscription_a_id</title>
<polygon fill="none" stroke="black" points="486.62,-36 360.38,-36 360.38,0 492.62,0 492.62,-30 486.62,-36"/>
<polyline fill="none" stroke="black" points="486.62,-36 486.62,-30"/>
<polyline fill="none" stroke="black" points="492.62,-30 486.62,-30"/>
<text text-anchor="middle" x="426.5" y="-12.95" font-family="Times,serif" font-size="14.00">var.subscription_a_id</text>
</g>
<!-- [root] provider[&quot;registry.terraform.io/hashicorp/azurerm&quot;]&#45;&gt;[root] var.subscription_a_id -->
<g id="edge11" class="edge">
<title>[root] provider[&quot;registry.terraform.io/hashicorp/azurerm&quot;]&#45;&gt;[root] var.subscription_a_id</title>
<path fill="none" stroke="black" d="M426.5,-71.7C426.5,-64.24 426.5,-55.32 426.5,-46.97"/>
<polygon fill="black" stroke="black" points="430,-47.1 426.5,-37.1 423,-47.1 430,-47.1"/>
</g>
<!-- [root] provider[&quot;registry.terraform.io/hashicorp/azurerm&quot;] (close) -->
<g id="node9" class="node">
<title>[root] provider[&quot;registry.terraform.io/hashicorp/azurerm&quot;] (close)</title>
<ellipse fill="none" stroke="black" cx="729.5" cy="-234" rx="254.54" ry="18"/>
<text text-anchor="middle" x="729.5" y="-228.95" font-family="Times,serif" font-size="14.00">[root] provider[&quot;registry.terraform.io/hashicorp/azurerm&quot;] (close)</text>
</g>
<!-- [root] provider[&quot;registry.terraform.io/hashicorp/azurerm&quot;] (close)&#45;&gt;[root] azurerm_resource_group.dr_resource_groups_subscription_a (expand) -->
<g id="edge9" class="edge">
<title>[root] provider[&quot;registry.terraform.io/hashicorp/azurerm&quot;] (close)&#45;&gt;[root] azurerm_resource_group.dr_resource_groups_subscription_a (expand)</title>
<path fill="none" stroke="black" d="M776.22,-215.88C802.39,-206.29 835.23,-194.25 862.97,-184.09"/>
<polygon fill="black" stroke="black" points="863.75,-187.16 871.93,-180.43 861.34,-180.59 863.75,-187.16"/>
</g>
<!-- [root] provider[&quot;registry.terraform.io/hashicorp/azurerm&quot;] (close)&#45;&gt;[root] azurerm_resource_group.primary_resource_groups_subscription_a (expand) -->
<g id="edge10" class="edge">
<title>[root] provider[&quot;registry.terraform.io/hashicorp/azurerm&quot;] (close)&#45;&gt;[root] azurerm_resource_group.primary_resource_groups_subscription_a (expand)</title>
<path fill="none" stroke="black" d="M682.78,-215.88C656.61,-206.29 623.77,-194.25 596.03,-184.09"/>
<polygon fill="black" stroke="black" points="597.66,-180.59 587.07,-180.43 595.25,-187.16 597.66,-180.59"/>
</g>
<!-- [root] root -->
<g id="node10" class="node">
<title>[root] root</title>
<ellipse fill="none" stroke="black" cx="729.5" cy="-306" rx="49.3" ry="18"/>
<text text-anchor="middle" x="729.5" y="-300.95" font-family="Times,serif" font-size="14.00">[root] root</text>
</g>
<!-- [root] root&#45;&gt;[root] provider[&quot;registry.terraform.io/hashicorp/azurerm&quot;] (close) -->
<g id="edge12" class="edge">
<title>[root] root&#45;&gt;[root] provider[&quot;registry.terraform.io/hashicorp/azurerm&quot;] (close)</title>
<path fill="none" stroke="black" d="M729.5,-287.7C729.5,-280.24 729.5,-271.32 729.5,-262.97"/>
<polygon fill="black" stroke="black" points="733,-263.1 729.5,-253.1 726,-263.1 733,-263.1"/>
</g>
</g>
</svg>
